<mxfile host="app.diagrams.net" agent="Mozilla/5.0 (Macintosh; Intel Mac OS X 10_15_7) AppleWebKit/537.36 (KHTML, like Gecko) Chrome/134.0.0.0 Safari/537.36" version="26.0.16">
  <diagram name="Página-1" id="DzLaasmj6pPwQof5zXrQ">
    <mxGraphModel dx="2295" dy="983" grid="1" gridSize="10" guides="1" tooltips="1" connect="1" arrows="1" fold="1" page="1" pageScale="1" pageWidth="827" pageHeight="1169" math="0" shadow="0">
      <root>
        <mxCell id="0" />
        <mxCell id="1" parent="0" />
        <mxCell id="977d3wOAYIHNIqo3Bu9D-19" style="edgeStyle=orthogonalEdgeStyle;rounded=0;orthogonalLoop=1;jettySize=auto;html=1;exitX=0.5;exitY=1;exitDx=0;exitDy=0;entryX=0.5;entryY=0;entryDx=0;entryDy=0;" parent="1" source="977d3wOAYIHNIqo3Bu9D-1" target="977d3wOAYIHNIqo3Bu9D-7" edge="1">
          <mxGeometry relative="1" as="geometry" />
        </mxCell>
        <mxCell id="977d3wOAYIHNIqo3Bu9D-1" value="&lt;font style=&quot;font-size: 18px;&quot;&gt;Início&lt;/font&gt;" style="rounded=1;whiteSpace=wrap;html=1;" parent="1" vertex="1">
          <mxGeometry x="40" y="20" width="120" height="60" as="geometry" />
        </mxCell>
        <mxCell id="977d3wOAYIHNIqo3Bu9D-10" style="edgeStyle=orthogonalEdgeStyle;rounded=0;orthogonalLoop=1;jettySize=auto;html=1;exitX=1;exitY=0.5;exitDx=0;exitDy=0;entryX=0;entryY=0.5;entryDx=0;entryDy=0;" parent="1" source="977d3wOAYIHNIqo3Bu9D-4" target="977d3wOAYIHNIqo3Bu9D-6" edge="1">
          <mxGeometry relative="1" as="geometry" />
        </mxCell>
        <mxCell id="977d3wOAYIHNIqo3Bu9D-13" style="edgeStyle=orthogonalEdgeStyle;rounded=0;orthogonalLoop=1;jettySize=auto;html=1;exitX=0.5;exitY=1;exitDx=0;exitDy=0;entryX=0.5;entryY=0;entryDx=0;entryDy=0;" parent="1" source="977d3wOAYIHNIqo3Bu9D-4" target="977d3wOAYIHNIqo3Bu9D-12" edge="1">
          <mxGeometry relative="1" as="geometry" />
        </mxCell>
        <mxCell id="977d3wOAYIHNIqo3Bu9D-4" value="Usuário inseriu&lt;div&gt;&amp;nbsp;o nome?&lt;/div&gt;" style="rhombus;whiteSpace=wrap;html=1;" parent="1" vertex="1">
          <mxGeometry x="240" y="120" width="130" height="100" as="geometry" />
        </mxCell>
        <mxCell id="977d3wOAYIHNIqo3Bu9D-6" value="Sim" style="rounded=0;whiteSpace=wrap;html=1;" parent="1" vertex="1">
          <mxGeometry x="440" y="150" width="80" height="40" as="geometry" />
        </mxCell>
        <mxCell id="977d3wOAYIHNIqo3Bu9D-20" style="edgeStyle=orthogonalEdgeStyle;rounded=0;orthogonalLoop=1;jettySize=auto;html=1;exitX=1;exitY=0.5;exitDx=0;exitDy=0;entryX=0;entryY=0.5;entryDx=0;entryDy=0;" parent="1" source="977d3wOAYIHNIqo3Bu9D-7" target="977d3wOAYIHNIqo3Bu9D-4" edge="1">
          <mxGeometry relative="1" as="geometry" />
        </mxCell>
        <mxCell id="977d3wOAYIHNIqo3Bu9D-7" value="Solicita nome de usuário" style="shape=parallelogram;perimeter=parallelogramPerimeter;whiteSpace=wrap;html=1;fixedSize=1;" parent="1" vertex="1">
          <mxGeometry x="40" y="140" width="120" height="60" as="geometry" />
        </mxCell>
        <mxCell id="977d3wOAYIHNIqo3Bu9D-21" style="edgeStyle=orthogonalEdgeStyle;rounded=0;orthogonalLoop=1;jettySize=auto;html=1;exitX=1;exitY=0.5;exitDx=0;exitDy=0;exitPerimeter=0;" parent="1" source="977d3wOAYIHNIqo3Bu9D-9" target="977d3wOAYIHNIqo3Bu9D-22" edge="1">
          <mxGeometry relative="1" as="geometry">
            <mxPoint x="720" y="170" as="targetPoint" />
          </mxGeometry>
        </mxCell>
        <mxCell id="977d3wOAYIHNIqo3Bu9D-9" value="&lt;font style=&quot;font-size: 14px;&quot;&gt;Exibe nome&amp;nbsp;&lt;/font&gt;&lt;div&gt;&lt;font size=&quot;3&quot;&gt;do usuário&lt;/font&gt;&lt;/div&gt;" style="shape=display;whiteSpace=wrap;html=1;" parent="1" vertex="1">
          <mxGeometry x="570" y="140" width="120" height="60" as="geometry" />
        </mxCell>
        <mxCell id="977d3wOAYIHNIqo3Bu9D-11" style="edgeStyle=orthogonalEdgeStyle;rounded=0;orthogonalLoop=1;jettySize=auto;html=1;exitX=1;exitY=0.5;exitDx=0;exitDy=0;entryX=0;entryY=0.5;entryDx=0;entryDy=0;entryPerimeter=0;" parent="1" source="977d3wOAYIHNIqo3Bu9D-6" target="977d3wOAYIHNIqo3Bu9D-9" edge="1">
          <mxGeometry relative="1" as="geometry" />
        </mxCell>
        <mxCell id="977d3wOAYIHNIqo3Bu9D-12" value="Não" style="rounded=0;whiteSpace=wrap;html=1;" parent="1" vertex="1">
          <mxGeometry x="270" y="270" width="70" height="20" as="geometry" />
        </mxCell>
        <mxCell id="977d3wOAYIHNIqo3Bu9D-14" value="Espera 1 segundo" style="shape=or;whiteSpace=wrap;html=1;" parent="1" vertex="1">
          <mxGeometry x="70" y="250" width="60" height="80" as="geometry" />
        </mxCell>
        <mxCell id="977d3wOAYIHNIqo3Bu9D-18" style="edgeStyle=orthogonalEdgeStyle;rounded=0;orthogonalLoop=1;jettySize=auto;html=1;exitX=0;exitY=0.5;exitDx=0;exitDy=0;entryX=1;entryY=0.375;entryDx=0;entryDy=0;entryPerimeter=0;" parent="1" source="977d3wOAYIHNIqo3Bu9D-12" target="977d3wOAYIHNIqo3Bu9D-14" edge="1">
          <mxGeometry relative="1" as="geometry" />
        </mxCell>
        <mxCell id="977d3wOAYIHNIqo3Bu9D-22" value="&lt;font style=&quot;font-size: 18px;&quot;&gt;Fim&lt;/font&gt;" style="rounded=1;whiteSpace=wrap;html=1;" parent="1" vertex="1">
          <mxGeometry x="730" y="155" width="80" height="30" as="geometry" />
        </mxCell>
        <mxCell id="977d3wOAYIHNIqo3Bu9D-23" style="edgeStyle=orthogonalEdgeStyle;rounded=0;orthogonalLoop=1;jettySize=auto;html=1;exitX=0.7;exitY=0.1;exitDx=0;exitDy=0;exitPerimeter=0;entryX=0.6;entryY=1.067;entryDx=0;entryDy=0;entryPerimeter=0;" parent="1" source="977d3wOAYIHNIqo3Bu9D-14" target="977d3wOAYIHNIqo3Bu9D-7" edge="1">
          <mxGeometry relative="1" as="geometry" />
        </mxCell>
        <mxCell id="977d3wOAYIHNIqo3Bu9D-31" style="edgeStyle=orthogonalEdgeStyle;rounded=0;orthogonalLoop=1;jettySize=auto;html=1;exitX=0.5;exitY=1;exitDx=0;exitDy=0;" parent="1" source="977d3wOAYIHNIqo3Bu9D-26" target="977d3wOAYIHNIqo3Bu9D-30" edge="1">
          <mxGeometry relative="1" as="geometry" />
        </mxCell>
        <mxCell id="977d3wOAYIHNIqo3Bu9D-26" value="&lt;font style=&quot;font-size: 18px;&quot;&gt;Início&lt;/font&gt;" style="rounded=1;whiteSpace=wrap;html=1;" parent="1" vertex="1">
          <mxGeometry x="40" y="380" width="120" height="60" as="geometry" />
        </mxCell>
        <mxCell id="977d3wOAYIHNIqo3Bu9D-29" value="" style="line;strokeWidth=2;html=1;" parent="1" vertex="1">
          <mxGeometry x="-70" y="340" width="920" height="10" as="geometry" />
        </mxCell>
        <mxCell id="977d3wOAYIHNIqo3Bu9D-35" style="edgeStyle=orthogonalEdgeStyle;rounded=0;orthogonalLoop=1;jettySize=auto;html=1;exitX=1;exitY=0.5;exitDx=0;exitDy=0;entryX=0;entryY=0.5;entryDx=0;entryDy=0;" parent="1" source="977d3wOAYIHNIqo3Bu9D-30" target="977d3wOAYIHNIqo3Bu9D-32" edge="1">
          <mxGeometry relative="1" as="geometry" />
        </mxCell>
        <mxCell id="977d3wOAYIHNIqo3Bu9D-30" value="Solicita nome de jogador 1" style="shape=parallelogram;perimeter=parallelogramPerimeter;whiteSpace=wrap;html=1;fixedSize=1;" parent="1" vertex="1">
          <mxGeometry x="40" y="490" width="120" height="60" as="geometry" />
        </mxCell>
        <mxCell id="977d3wOAYIHNIqo3Bu9D-36" style="edgeStyle=orthogonalEdgeStyle;rounded=0;orthogonalLoop=1;jettySize=auto;html=1;exitX=1;exitY=0.5;exitDx=0;exitDy=0;entryX=0;entryY=0.5;entryDx=0;entryDy=0;" parent="1" source="977d3wOAYIHNIqo3Bu9D-32" target="977d3wOAYIHNIqo3Bu9D-33" edge="1">
          <mxGeometry relative="1" as="geometry">
            <mxPoint x="410" y="520" as="targetPoint" />
          </mxGeometry>
        </mxCell>
        <mxCell id="977d3wOAYIHNIqo3Bu9D-49" style="edgeStyle=orthogonalEdgeStyle;rounded=0;orthogonalLoop=1;jettySize=auto;html=1;exitX=0.5;exitY=1;exitDx=0;exitDy=0;entryX=0.5;entryY=0;entryDx=0;entryDy=0;" parent="1" source="977d3wOAYIHNIqo3Bu9D-32" target="977d3wOAYIHNIqo3Bu9D-46" edge="1">
          <mxGeometry relative="1" as="geometry" />
        </mxCell>
        <mxCell id="977d3wOAYIHNIqo3Bu9D-32" value="Jogador 1 inseriu o nome?" style="rhombus;whiteSpace=wrap;html=1;" parent="1" vertex="1">
          <mxGeometry x="220" y="470" width="140" height="100" as="geometry" />
        </mxCell>
        <mxCell id="977d3wOAYIHNIqo3Bu9D-37" style="edgeStyle=orthogonalEdgeStyle;rounded=0;orthogonalLoop=1;jettySize=auto;html=1;exitX=1;exitY=0.5;exitDx=0;exitDy=0;entryX=0;entryY=0.5;entryDx=0;entryDy=0;" parent="1" source="977d3wOAYIHNIqo3Bu9D-33" target="977d3wOAYIHNIqo3Bu9D-34" edge="1">
          <mxGeometry relative="1" as="geometry" />
        </mxCell>
        <mxCell id="977d3wOAYIHNIqo3Bu9D-33" value="Sim" style="rounded=0;whiteSpace=wrap;html=1;" parent="1" vertex="1">
          <mxGeometry x="414" y="500" width="100" height="40" as="geometry" />
        </mxCell>
        <mxCell id="977d3wOAYIHNIqo3Bu9D-39" style="edgeStyle=orthogonalEdgeStyle;rounded=0;orthogonalLoop=1;jettySize=auto;html=1;exitX=1;exitY=0.5;exitDx=0;exitDy=0;entryX=0;entryY=0.5;entryDx=0;entryDy=0;" parent="1" source="977d3wOAYIHNIqo3Bu9D-34" target="977d3wOAYIHNIqo3Bu9D-38" edge="1">
          <mxGeometry relative="1" as="geometry" />
        </mxCell>
        <mxCell id="977d3wOAYIHNIqo3Bu9D-34" value="Solicita idade de jogador 1 (em numeral)" style="shape=parallelogram;perimeter=parallelogramPerimeter;whiteSpace=wrap;html=1;fixedSize=1;" parent="1" vertex="1">
          <mxGeometry x="550" y="485" width="120" height="70" as="geometry" />
        </mxCell>
        <mxCell id="977d3wOAYIHNIqo3Bu9D-42" style="edgeStyle=orthogonalEdgeStyle;rounded=0;orthogonalLoop=1;jettySize=auto;html=1;exitX=0.5;exitY=1;exitDx=0;exitDy=0;entryX=0.5;entryY=0;entryDx=0;entryDy=0;" parent="1" source="977d3wOAYIHNIqo3Bu9D-38" target="977d3wOAYIHNIqo3Bu9D-40" edge="1">
          <mxGeometry relative="1" as="geometry" />
        </mxCell>
        <mxCell id="977d3wOAYIHNIqo3Bu9D-38" value="Jogador 1 inseriu a idade?" style="rhombus;whiteSpace=wrap;html=1;" parent="1" vertex="1">
          <mxGeometry x="705" y="465" width="130" height="110" as="geometry" />
        </mxCell>
        <mxCell id="977d3wOAYIHNIqo3Bu9D-45" style="edgeStyle=orthogonalEdgeStyle;rounded=0;orthogonalLoop=1;jettySize=auto;html=1;exitX=0.5;exitY=1;exitDx=0;exitDy=0;" parent="1" source="977d3wOAYIHNIqo3Bu9D-40" edge="1">
          <mxGeometry relative="1" as="geometry">
            <mxPoint x="770" y="700" as="targetPoint" />
          </mxGeometry>
        </mxCell>
        <mxCell id="977d3wOAYIHNIqo3Bu9D-40" value="Sim" style="rounded=0;whiteSpace=wrap;html=1;" parent="1" vertex="1">
          <mxGeometry x="720" y="610" width="100" height="40" as="geometry" />
        </mxCell>
        <mxCell id="977d3wOAYIHNIqo3Bu9D-54" style="edgeStyle=orthogonalEdgeStyle;rounded=0;orthogonalLoop=1;jettySize=auto;html=1;exitX=0.5;exitY=1;exitDx=0;exitDy=0;entryX=0.5;entryY=0;entryDx=0;entryDy=0;" parent="1" source="977d3wOAYIHNIqo3Bu9D-43" target="977d3wOAYIHNIqo3Bu9D-52" edge="1">
          <mxGeometry relative="1" as="geometry" />
        </mxCell>
        <mxCell id="977d3wOAYIHNIqo3Bu9D-43" value="Solicita nome de jogador 2" style="shape=parallelogram;perimeter=parallelogramPerimeter;whiteSpace=wrap;html=1;fixedSize=1;" parent="1" vertex="1">
          <mxGeometry x="707" y="700" width="120" height="60" as="geometry" />
        </mxCell>
        <mxCell id="977d3wOAYIHNIqo3Bu9D-46" value="Não" style="rounded=0;whiteSpace=wrap;html=1;" parent="1" vertex="1">
          <mxGeometry x="247.5" y="620" width="85" height="40" as="geometry" />
        </mxCell>
        <mxCell id="977d3wOAYIHNIqo3Bu9D-47" value="Espera 1 segundo" style="shape=or;whiteSpace=wrap;html=1;" parent="1" vertex="1">
          <mxGeometry x="80" y="600" width="60" height="80" as="geometry" />
        </mxCell>
        <mxCell id="977d3wOAYIHNIqo3Bu9D-48" style="edgeStyle=orthogonalEdgeStyle;rounded=0;orthogonalLoop=1;jettySize=auto;html=1;exitX=0;exitY=0.5;exitDx=0;exitDy=0;entryX=1;entryY=0.5;entryDx=0;entryDy=0;entryPerimeter=0;" parent="1" source="977d3wOAYIHNIqo3Bu9D-46" target="977d3wOAYIHNIqo3Bu9D-47" edge="1">
          <mxGeometry relative="1" as="geometry" />
        </mxCell>
        <mxCell id="977d3wOAYIHNIqo3Bu9D-50" style="edgeStyle=orthogonalEdgeStyle;rounded=0;orthogonalLoop=1;jettySize=auto;html=1;exitX=0.7;exitY=0.1;exitDx=0;exitDy=0;exitPerimeter=0;entryX=0.683;entryY=1.067;entryDx=0;entryDy=0;entryPerimeter=0;" parent="1" source="977d3wOAYIHNIqo3Bu9D-47" target="977d3wOAYIHNIqo3Bu9D-30" edge="1">
          <mxGeometry relative="1" as="geometry" />
        </mxCell>
        <mxCell id="977d3wOAYIHNIqo3Bu9D-64" style="edgeStyle=orthogonalEdgeStyle;rounded=0;orthogonalLoop=1;jettySize=auto;html=1;exitX=0;exitY=0.5;exitDx=0;exitDy=0;entryX=1;entryY=0.5;entryDx=0;entryDy=0;" parent="1" source="977d3wOAYIHNIqo3Bu9D-51" target="977d3wOAYIHNIqo3Bu9D-63" edge="1">
          <mxGeometry relative="1" as="geometry" />
        </mxCell>
        <mxCell id="977d3wOAYIHNIqo3Bu9D-51" value="Sim" style="rounded=0;whiteSpace=wrap;html=1;" parent="1" vertex="1">
          <mxGeometry x="717" y="940" width="100" height="40" as="geometry" />
        </mxCell>
        <mxCell id="977d3wOAYIHNIqo3Bu9D-58" style="edgeStyle=orthogonalEdgeStyle;rounded=0;orthogonalLoop=1;jettySize=auto;html=1;exitX=0;exitY=0.5;exitDx=0;exitDy=0;entryX=1;entryY=0.5;entryDx=0;entryDy=0;" parent="1" source="977d3wOAYIHNIqo3Bu9D-52" target="977d3wOAYIHNIqo3Bu9D-57" edge="1">
          <mxGeometry relative="1" as="geometry" />
        </mxCell>
        <mxCell id="977d3wOAYIHNIqo3Bu9D-52" value="Jogador 2 inseriu o nome?" style="rhombus;whiteSpace=wrap;html=1;" parent="1" vertex="1">
          <mxGeometry x="697" y="790" width="130" height="110" as="geometry" />
        </mxCell>
        <mxCell id="977d3wOAYIHNIqo3Bu9D-56" style="edgeStyle=orthogonalEdgeStyle;rounded=0;orthogonalLoop=1;jettySize=auto;html=1;exitX=0.5;exitY=1;exitDx=0;exitDy=0;entryX=0.44;entryY=-0.05;entryDx=0;entryDy=0;entryPerimeter=0;" parent="1" source="977d3wOAYIHNIqo3Bu9D-52" target="977d3wOAYIHNIqo3Bu9D-51" edge="1">
          <mxGeometry relative="1" as="geometry" />
        </mxCell>
        <mxCell id="977d3wOAYIHNIqo3Bu9D-60" style="edgeStyle=orthogonalEdgeStyle;rounded=0;orthogonalLoop=1;jettySize=auto;html=1;exitX=0.5;exitY=0;exitDx=0;exitDy=0;" parent="1" source="977d3wOAYIHNIqo3Bu9D-57" target="977d3wOAYIHNIqo3Bu9D-59" edge="1">
          <mxGeometry relative="1" as="geometry" />
        </mxCell>
        <mxCell id="977d3wOAYIHNIqo3Bu9D-57" value="Não" style="rounded=0;whiteSpace=wrap;html=1;" parent="1" vertex="1">
          <mxGeometry x="567.5" y="825" width="85" height="40" as="geometry" />
        </mxCell>
        <mxCell id="977d3wOAYIHNIqo3Bu9D-59" value="Espera 1 segundo" style="shape=or;whiteSpace=wrap;html=1;" parent="1" vertex="1">
          <mxGeometry x="580" y="710" width="60" height="80" as="geometry" />
        </mxCell>
        <mxCell id="977d3wOAYIHNIqo3Bu9D-67" style="edgeStyle=orthogonalEdgeStyle;rounded=0;orthogonalLoop=1;jettySize=auto;html=1;exitX=0;exitY=0.5;exitDx=0;exitDy=0;entryX=1;entryY=0.5;entryDx=0;entryDy=0;" parent="1" source="977d3wOAYIHNIqo3Bu9D-63" target="977d3wOAYIHNIqo3Bu9D-65" edge="1">
          <mxGeometry relative="1" as="geometry" />
        </mxCell>
        <mxCell id="977d3wOAYIHNIqo3Bu9D-63" value="Solicita idade de jogador 2 (em numeral)" style="shape=parallelogram;perimeter=parallelogramPerimeter;whiteSpace=wrap;html=1;fixedSize=1;" parent="1" vertex="1">
          <mxGeometry x="450" y="925" width="120" height="70" as="geometry" />
        </mxCell>
        <mxCell id="977d3wOAYIHNIqo3Bu9D-71" style="edgeStyle=orthogonalEdgeStyle;rounded=0;orthogonalLoop=1;jettySize=auto;html=1;exitX=0.5;exitY=0;exitDx=0;exitDy=0;" parent="1" source="977d3wOAYIHNIqo3Bu9D-65" target="977d3wOAYIHNIqo3Bu9D-70" edge="1">
          <mxGeometry relative="1" as="geometry" />
        </mxCell>
        <mxCell id="977d3wOAYIHNIqo3Bu9D-76" style="edgeStyle=orthogonalEdgeStyle;rounded=0;orthogonalLoop=1;jettySize=auto;html=1;exitX=0;exitY=0.5;exitDx=0;exitDy=0;entryX=1;entryY=0.5;entryDx=0;entryDy=0;" parent="1" source="977d3wOAYIHNIqo3Bu9D-65" target="977d3wOAYIHNIqo3Bu9D-75" edge="1">
          <mxGeometry relative="1" as="geometry" />
        </mxCell>
        <mxCell id="977d3wOAYIHNIqo3Bu9D-65" value="Jogador 2 inseriu a idade?" style="rhombus;whiteSpace=wrap;html=1;" parent="1" vertex="1">
          <mxGeometry x="240" y="905" width="130" height="110" as="geometry" />
        </mxCell>
        <mxCell id="977d3wOAYIHNIqo3Bu9D-69" style="edgeStyle=orthogonalEdgeStyle;rounded=0;orthogonalLoop=1;jettySize=auto;html=1;exitX=1;exitY=0.5;exitDx=0;exitDy=0;exitPerimeter=0;entryX=0;entryY=0.85;entryDx=0;entryDy=0;entryPerimeter=0;" parent="1" source="977d3wOAYIHNIqo3Bu9D-59" target="977d3wOAYIHNIqo3Bu9D-43" edge="1">
          <mxGeometry relative="1" as="geometry" />
        </mxCell>
        <mxCell id="977d3wOAYIHNIqo3Bu9D-70" value="Não" style="rounded=0;whiteSpace=wrap;html=1;" parent="1" vertex="1">
          <mxGeometry x="262.5" y="820" width="85" height="40" as="geometry" />
        </mxCell>
        <mxCell id="977d3wOAYIHNIqo3Bu9D-72" value="Espera 1 segundo" style="shape=or;whiteSpace=wrap;html=1;" parent="1" vertex="1">
          <mxGeometry x="470" y="800" width="60" height="80" as="geometry" />
        </mxCell>
        <mxCell id="977d3wOAYIHNIqo3Bu9D-73" style="edgeStyle=orthogonalEdgeStyle;rounded=0;orthogonalLoop=1;jettySize=auto;html=1;exitX=1;exitY=0.5;exitDx=0;exitDy=0;entryX=0;entryY=0.5;entryDx=0;entryDy=0;entryPerimeter=0;" parent="1" source="977d3wOAYIHNIqo3Bu9D-70" target="977d3wOAYIHNIqo3Bu9D-72" edge="1">
          <mxGeometry relative="1" as="geometry" />
        </mxCell>
        <mxCell id="977d3wOAYIHNIqo3Bu9D-74" style="edgeStyle=orthogonalEdgeStyle;rounded=0;orthogonalLoop=1;jettySize=auto;html=1;exitX=1;exitY=0.5;exitDx=0;exitDy=0;exitPerimeter=0;entryX=0.833;entryY=0;entryDx=0;entryDy=0;entryPerimeter=0;" parent="1" source="977d3wOAYIHNIqo3Bu9D-72" target="977d3wOAYIHNIqo3Bu9D-63" edge="1">
          <mxGeometry relative="1" as="geometry" />
        </mxCell>
        <mxCell id="977d3wOAYIHNIqo3Bu9D-77" style="edgeStyle=orthogonalEdgeStyle;rounded=0;orthogonalLoop=1;jettySize=auto;html=1;exitX=0.5;exitY=0;exitDx=0;exitDy=0;entryX=0.497;entryY=1.067;entryDx=0;entryDy=0;entryPerimeter=0;" parent="1" source="977d3wOAYIHNIqo3Bu9D-75" target="977d3wOAYIHNIqo3Bu9D-78" edge="1">
          <mxGeometry relative="1" as="geometry">
            <mxPoint x="160" y="870" as="targetPoint" />
          </mxGeometry>
        </mxCell>
        <mxCell id="977d3wOAYIHNIqo3Bu9D-82" style="edgeStyle=orthogonalEdgeStyle;rounded=0;orthogonalLoop=1;jettySize=auto;html=1;exitX=0.5;exitY=1;exitDx=0;exitDy=0;entryX=0.5;entryY=0;entryDx=0;entryDy=0;" parent="1" source="977d3wOAYIHNIqo3Bu9D-75" target="977d3wOAYIHNIqo3Bu9D-81" edge="1">
          <mxGeometry relative="1" as="geometry" />
        </mxCell>
        <mxCell id="977d3wOAYIHNIqo3Bu9D-75" value="Sim" style="rounded=0;whiteSpace=wrap;html=1;" parent="1" vertex="1">
          <mxGeometry x="110" y="940" width="100" height="40" as="geometry" />
        </mxCell>
        <mxCell id="977d3wOAYIHNIqo3Bu9D-80" style="edgeStyle=orthogonalEdgeStyle;rounded=0;orthogonalLoop=1;jettySize=auto;html=1;exitX=0;exitY=0;exitDx=42.5;exitDy=0;exitPerimeter=0;entryX=1;entryY=0.75;entryDx=0;entryDy=0;" parent="1" source="977d3wOAYIHNIqo3Bu9D-78" target="977d3wOAYIHNIqo3Bu9D-79" edge="1">
          <mxGeometry relative="1" as="geometry" />
        </mxCell>
        <mxCell id="977d3wOAYIHNIqo3Bu9D-78" value="Exibe nome do jogador&lt;div&gt;&amp;nbsp;com o maior numeral&lt;/div&gt;" style="shape=display;whiteSpace=wrap;html=1;" parent="1" vertex="1">
          <mxGeometry x="77.5" y="760" width="170" height="60" as="geometry" />
        </mxCell>
        <mxCell id="977d3wOAYIHNIqo3Bu9D-79" value="&lt;font style=&quot;font-size: 18px;&quot;&gt;Fim&lt;/font&gt;" style="rounded=1;whiteSpace=wrap;html=1;" parent="1" vertex="1">
          <mxGeometry x="-100" y="690" width="120" height="60" as="geometry" />
        </mxCell>
        <mxCell id="977d3wOAYIHNIqo3Bu9D-81" value="O valor dos dois numerais é igual?" style="rhombus;whiteSpace=wrap;html=1;" parent="1" vertex="1">
          <mxGeometry x="97.5" y="1050" width="130" height="110" as="geometry" />
        </mxCell>
        <mxCell id="977d3wOAYIHNIqo3Bu9D-86" style="edgeStyle=orthogonalEdgeStyle;rounded=0;orthogonalLoop=1;jettySize=auto;html=1;exitX=1;exitY=0.5;exitDx=0;exitDy=0;exitPerimeter=0;" parent="1" source="977d3wOAYIHNIqo3Bu9D-83" target="977d3wOAYIHNIqo3Bu9D-85" edge="1">
          <mxGeometry relative="1" as="geometry" />
        </mxCell>
        <mxCell id="977d3wOAYIHNIqo3Bu9D-83" value="Exibe os dois nome na tela" style="shape=display;whiteSpace=wrap;html=1;" parent="1" vertex="1">
          <mxGeometry x="262.5" y="1075" width="170" height="60" as="geometry" />
        </mxCell>
        <mxCell id="977d3wOAYIHNIqo3Bu9D-84" style="edgeStyle=orthogonalEdgeStyle;rounded=0;orthogonalLoop=1;jettySize=auto;html=1;exitX=1;exitY=0.5;exitDx=0;exitDy=0;entryX=0;entryY=0.5;entryDx=0;entryDy=0;entryPerimeter=0;" parent="1" source="977d3wOAYIHNIqo3Bu9D-81" target="977d3wOAYIHNIqo3Bu9D-83" edge="1">
          <mxGeometry relative="1" as="geometry" />
        </mxCell>
        <mxCell id="977d3wOAYIHNIqo3Bu9D-85" value="&lt;font style=&quot;font-size: 18px;&quot;&gt;Fim&lt;/font&gt;" style="rounded=1;whiteSpace=wrap;html=1;" parent="1" vertex="1">
          <mxGeometry x="490" y="1070" width="120" height="60" as="geometry" />
        </mxCell>
      </root>
    </mxGraphModel>
  </diagram>
</mxfile>
